<?xml version="1.0" encoding="UTF-8"?>
<svg xmlns="http://www.w3.org/2000/svg" xmlns:xlink="http://www.w3.org/1999/xlink"
     width="400" height="400" viewBox="-200.0 -200.0 400 400">
<defs>
</defs>
<circle cx="-197.00984947942024" cy="140.43606767099453" r="3" fill="black" stroke-width="0" />
<circle cx="-193.9561643255941" cy="122.2333685567377" r="3" fill="black" stroke-width="0" />
<circle cx="-188.72747786639067" cy="92.43225896876808" r="3" fill="black" stroke-width="0" />
<circle cx="-188.65757808806615" cy="126.32421475188333" r="3" fill="black" stroke-width="0" />
<circle cx="-184.41318958190814" cy="194.36716927280455" r="3" fill="black" stroke-width="0" />
<circle cx="-180.81235439187788" cy="-19.219290833568564" r="3" fill="black" stroke-width="0" />
<circle cx="-167.02663400044693" cy="195.8029642351208" r="3" fill="black" stroke-width="0" />
<circle cx="-166.43689472442858" cy="-62.267727732036626" r="3" fill="black" stroke-width="0" />
<circle cx="-160.359579981435" cy="7.49828112168648" r="3" fill="black" stroke-width="0" />
<circle cx="-157.34997515280108" cy="-12.29616194653907" r="3" fill="black" stroke-width="0" />
<circle cx="-156.02024721322175" cy="-40.772858788368865" r="3" fill="black" stroke-width="0" />
<circle cx="-147.8648883971004" cy="196.5597778503722" r="3" fill="black" stroke-width="0" />
<circle cx="-142.34222289701316" cy="-30.259912370258217" r="3" fill="black" stroke-width="0" />
<circle cx="-128.68889379622834" cy="-36.52453373178287" r="3" fill="black" stroke-width="0" />
<circle cx="-124.52618330254982" cy="-63.46980893541363" r="3" fill="black" stroke-width="0" />
<circle cx="-115.99366019441032" cy="-80.83953654857338" r="3" fill="black" stroke-width="0" />
<circle cx="-111.67943609804469" cy="-47.201656859126345" r="3" fill="black" stroke-width="0" />
<circle cx="-110.9374728176772" cy="-59.83700775380453" r="3" fill="black" stroke-width="0" />
<circle cx="-98.59668518385546" cy="-72.05884852876187" r="3" fill="black" stroke-width="0" />
<circle cx="-95.34364765276642" cy="-61.05838549061613" r="3" fill="black" stroke-width="0" />
<circle cx="-94.61132177820197" cy="-98.75858029531913" r="3" fill="black" stroke-width="0" />
<circle cx="-93.8159634426053" cy="-85.26181142277703" r="3" fill="black" stroke-width="0" />
<circle cx="-65.88366351310971" cy="87.2037102914743" r="3" fill="black" stroke-width="0" />
<circle cx="-65.03415701774003" cy="95.48196040925141" r="3" fill="black" stroke-width="0" />
<circle cx="-61.57164333210587" cy="-98.34195805801525" r="3" fill="black" stroke-width="0" />
<circle cx="-59.865893010400896" cy="-107.46114422784696" r="3" fill="black" stroke-width="0" />
<circle cx="-59.39289574062514" cy="86.64485965483809" r="3" fill="black" stroke-width="0" />
<circle cx="-54.57776976834363" cy="96.67346242516487" r="3" fill="black" stroke-width="0" />
<circle cx="-53.91183057831148" cy="-79.62479879090942" r="3" fill="black" stroke-width="0" />
<circle cx="-53.90111551447474" cy="-91.05489823599532" r="3" fill="black" stroke-width="0" />
<circle cx="-45.97721495935741" cy="-114.25694954092445" r="3" fill="black" stroke-width="0" />
<circle cx="-41.95527394342375" cy="-108.61922260245326" r="3" fill="black" stroke-width="0" />
<circle cx="-33.86307972964478" cy="-106.70141506043223" r="3" fill="black" stroke-width="0" />
<circle cx="-29.90240490051549" cy="-114.75808842569842" r="3" fill="black" stroke-width="0" />
<circle cx="-14.837352425185202" cy="-80.8882621749107" r="3" fill="black" stroke-width="0" />
<circle cx="-8.52871886608159" cy="-121.30322006128576" r="3" fill="black" stroke-width="0" />
<circle cx="-7.348667985324124" cy="-95.40029798896802" r="3" fill="black" stroke-width="0" />
<circle cx="-6.598227622585146" cy="-103.25924334046692" r="3" fill="black" stroke-width="0" />
<circle cx="8.138981717925468" cy="-75.02767765231518" r="3" fill="black" stroke-width="0" />
<circle cx="25.92135421775497" cy="-119.45192452701394" r="3" fill="black" stroke-width="0" />
<circle cx="26.38465603738452" cy="-110.30268621841408" r="3" fill="black" stroke-width="0" />
<circle cx="31.236712494803843" cy="-116.56554159940073" r="3" fill="black" stroke-width="0" />
<circle cx="31.92223355432248" cy="-129.58947665667696" r="3" fill="black" stroke-width="0" />
<circle cx="37.044956549793504" cy="-118.88211674656107" r="3" fill="black" stroke-width="0" />
<circle cx="40.146424568809245" cy="-104.18512765016732" r="3" fill="black" stroke-width="0" />
<circle cx="40.98703153990797" cy="-91.00268633725837" r="3" fill="black" stroke-width="0" />
<circle cx="45.37896107513056" cy="-125.35664770266959" r="3" fill="black" stroke-width="0" />
<circle cx="49.28087191963099" cy="-100.51626552175786" r="3" fill="black" stroke-width="0" />
<circle cx="55.82247352100714" cy="-135.74644752521525" r="3" fill="black" stroke-width="0" />
<circle cx="59.37935996525309" cy="-81.48061919180992" r="3" fill="black" stroke-width="0" />
<circle cx="61.28286575169438" cy="-111.88236501359958" r="3" fill="black" stroke-width="0" />
<circle cx="64.28506322656743" cy="-89.68217722062533" r="3" fill="black" stroke-width="0" />
<circle cx="69.89990910795913" cy="-98.9864258989672" r="3" fill="black" stroke-width="0" />
<circle cx="73.69714250678062" cy="-104.81673409740897" r="3" fill="black" stroke-width="0" />
<circle cx="78.60984238727823" cy="-104.66687411282439" r="3" fill="black" stroke-width="0" />
<circle cx="79.28681562088589" cy="-83.29604201954271" r="3" fill="black" stroke-width="0" />
<circle cx="82.03766151557895" cy="-84.4947274156658" r="3" fill="black" stroke-width="0" />
<circle cx="84.00650635392465" cy="-71.52072067718325" r="3" fill="black" stroke-width="0" />
<circle cx="84.68610617746451" cy="-25.15026327289287" r="3" fill="black" stroke-width="0" />
<circle cx="85.11442642665386" cy="-98.17187784219816" r="3" fill="black" stroke-width="0" />
<circle cx="85.28562626165719" cy="-106.50912001543604" r="3" fill="black" stroke-width="0" />
<circle cx="87.69973692552664" cy="-65.55072167331478" r="3" fill="black" stroke-width="0" />
<circle cx="91.07078489831487" cy="-98.26047154765313" r="3" fill="black" stroke-width="0" />
<circle cx="92.58417602211725" cy="-41.870042339513084" r="3" fill="black" stroke-width="0" />
<circle cx="95.60860223904743" cy="-43.06438937418012" r="3" fill="black" stroke-width="0" />
<circle cx="98.54534023769416" cy="-44.69760236698375" r="3" fill="black" stroke-width="0" />
<circle cx="100.81985306184448" cy="-70.24219971066465" r="3" fill="black" stroke-width="0" />
<circle cx="101.82453287938935" cy="-100.11613966374595" r="3" fill="black" stroke-width="0" />
<circle cx="101.95060003692964" cy="-38.71827583363156" r="3" fill="black" stroke-width="0" />
<circle cx="104.24398018384169" cy="-23.527356315770668" r="3" fill="black" stroke-width="0" />
<circle cx="105.76583489782895" cy="-60.236900690309156" r="3" fill="black" stroke-width="0" />
<circle cx="109.6436792588535" cy="-121.53349350406293" r="3" fill="black" stroke-width="0" />
<circle cx="120.2693969404687" cy="-45.15639294477458" r="3" fill="black" stroke-width="0" />
<circle cx="122.47390538462115" cy="-82.47228030837937" r="3" fill="black" stroke-width="0" />
<circle cx="123.46125499927506" cy="-46.38584903872648" r="3" fill="black" stroke-width="0" />
<circle cx="127.0607637729666" cy="-67.00978181166242" r="3" fill="black" stroke-width="0" />
<circle cx="127.27357148775896" cy="-54.261292663289005" r="3" fill="black" stroke-width="0" />
<circle cx="127.42099351225657" cy="-76.50008747331773" r="3" fill="black" stroke-width="0" />
<circle cx="128.90894868670856" cy="-57.72032655637137" r="3" fill="black" stroke-width="0" />
<circle cx="129.37764678153977" cy="-63.09161029526731" r="3" fill="black" stroke-width="0" />
<circle cx="142.86358577678783" cy="-83.45648798788723" r="3" fill="black" stroke-width="0" />
<circle cx="147.92115485055703" cy="-80.88742644614229" r="3" fill="black" stroke-width="0" />
<circle cx="149.05882386960027" cy="-91.14130233514032" r="3" fill="black" stroke-width="0" />
<circle cx="152.78218131545847" cy="-85.56540325346788" r="3" fill="black" stroke-width="0" />
<circle cx="154.40564467868234" cy="-79.28456511977883" r="3" fill="black" stroke-width="0" />
<circle cx="161.11379818040163" cy="-47.51925658830864" r="3" fill="black" stroke-width="0" />
<circle cx="167.42885988957542" cy="-67.0918562208368" r="3" fill="black" stroke-width="0" />
<circle cx="175.47059704626307" cy="-24.709615189103864" r="3" fill="black" stroke-width="0" />
<circle cx="192.47551911746694" cy="-52.0953474910675" r="3" fill="black" stroke-width="0" />
<circle cx="193.8276957276432" cy="-49.182622787266645" r="3" fill="black" stroke-width="0" />
</svg>