<?xml version="1.0" encoding="UTF-8"?>
<svg xmlns="http://www.w3.org/2000/svg" xmlns:xlink="http://www.w3.org/1999/xlink"
     width="400" height="400" viewBox="-200.0 -200.0 400 400">
<defs>
</defs>
<path d="M-14.837352425185202,-80.8882621749107 L-7.348667985324124,-95.40029798896802" stroke="black" stroke-width="1" fill="black" />
<path d="M-7.348667985324124,-95.40029798896802 L8.138981717925468,-75.02767765231518" stroke="black" stroke-width="1" fill="black" />
<path d="M8.138981717925468,-75.02767765231518 L-7.348667985324124,-95.40029798896802" stroke="black" stroke-width="1" fill="black" />
<path d="M-7.348667985324124,-95.40029798896802 L-6.598227622585146,-103.25924334046692" stroke="black" stroke-width="1" fill="black" />
<path d="M-6.598227622585146,-103.25924334046692 L-8.52871886608159,-121.30322006128576" stroke="black" stroke-width="1" fill="black" />
<path d="M-54.57776976834363,96.67346242516487 L-65.88366351310971,87.2037102914743" stroke="black" stroke-width="1" fill="black" />
<path d="M-65.03415701774003,95.48196040925141 L-59.39289574062514,86.64485965483809" stroke="black" stroke-width="1" fill="black" />
<path d="M-65.03415701774003,95.48196040925141 L-59.39289574062514,86.64485965483809" stroke="black" stroke-width="1" fill="black" />
<path d="M59.37935996525309,-81.48061919180992 L40.98703153990797,-91.00268633725837" stroke="black" stroke-width="1" fill="black" />
<path d="M40.98703153990797,-91.00268633725837 L40.146424568809245,-104.18512765016732" stroke="black" stroke-width="1" fill="black" />
<path d="M40.146424568809245,-104.18512765016732 L49.28087191963099,-100.51626552175786" stroke="black" stroke-width="1" fill="black" />
<path d="M49.28087191963099,-100.51626552175786 L64.28506322656743,-89.68217722062533" stroke="black" stroke-width="1" fill="black" />
<path d="M64.28506322656743,-89.68217722062533 L49.28087191963099,-100.51626552175786" stroke="black" stroke-width="1" fill="black" />
<path d="M49.28087191963099,-100.51626552175786 L40.146424568809245,-104.18512765016732" stroke="black" stroke-width="1" fill="black" />
<path d="M40.146424568809245,-104.18512765016732 L31.236712494803843,-116.56554159940073" stroke="black" stroke-width="1" fill="black" />
<path d="M31.236712494803843,-116.56554159940073 L26.38465603738452,-110.30268621841408" stroke="black" stroke-width="1" fill="black" />
<path d="M26.38465603738452,-110.30268621841408 L31.236712494803843,-116.56554159940073" stroke="black" stroke-width="1" fill="black" />
<path d="M31.236712494803843,-116.56554159940073 L25.92135421775497,-119.45192452701394" stroke="black" stroke-width="1" fill="black" />
<path d="M25.92135421775497,-119.45192452701394 L31.236712494803843,-116.56554159940073" stroke="black" stroke-width="1" fill="black" />
<path d="M31.236712494803843,-116.56554159940073 L37.044956549793504,-118.88211674656107" stroke="black" stroke-width="1" fill="black" />
<path d="M37.044956549793504,-118.88211674656107 L45.37896107513056,-125.35664770266959" stroke="black" stroke-width="1" fill="black" />
<path d="M45.37896107513056,-125.35664770266959 L31.92223355432248,-129.58947665667696" stroke="black" stroke-width="1" fill="black" />
<path d="M31.92223355432248,-129.58947665667696 L45.37896107513056,-125.35664770266959" stroke="black" stroke-width="1" fill="black" />
<path d="M45.37896107513056,-125.35664770266959 L55.82247352100714,-135.74644752521525" stroke="black" stroke-width="1" fill="black" />
<path d="M55.82247352100714,-135.74644752521525 L45.37896107513056,-125.35664770266959" stroke="black" stroke-width="1" fill="black" />
<path d="M45.37896107513056,-125.35664770266959 L61.28286575169438,-111.88236501359958" stroke="black" stroke-width="1" fill="black" />
<path d="M61.28286575169438,-111.88236501359958 L69.89990910795913,-98.9864258989672" stroke="black" stroke-width="1" fill="black" />
<path d="M69.89990910795913,-98.9864258989672 L61.28286575169438,-111.88236501359958" stroke="black" stroke-width="1" fill="black" />
<path d="M61.28286575169438,-111.88236501359958 L73.69714250678062,-104.81673409740897" stroke="black" stroke-width="1" fill="black" />
<path d="M73.69714250678062,-104.81673409740897 L78.60984238727823,-104.66687411282439" stroke="black" stroke-width="1" fill="black" />
<path d="M78.60984238727823,-104.66687411282439 L85.28562626165719,-106.50912001543604" stroke="black" stroke-width="1" fill="black" />
<path d="M-53.91183057831148,-79.62479879090942 L-53.90111551447474,-91.05489823599532" stroke="black" stroke-width="1" fill="black" />
<path d="M-53.90111551447474,-91.05489823599532 L-61.57164333210587,-98.34195805801525" stroke="black" stroke-width="1" fill="black" />
<path d="M-61.57164333210587,-98.34195805801525 L-59.865893010400896,-107.46114422784696" stroke="black" stroke-width="1" fill="black" />
<path d="M-59.865893010400896,-107.46114422784696 L-45.97721495935741,-114.25694954092445" stroke="black" stroke-width="1" fill="black" />
<path d="M-45.97721495935741,-114.25694954092445 L-41.95527394342375,-108.61922260245326" stroke="black" stroke-width="1" fill="black" />
<path d="M-61.57164333210587,-98.34195805801525 L-94.61132177820197,-98.75858029531913" stroke="black" stroke-width="1" fill="black" />
<path d="M-94.61132177820197,-98.75858029531913 L-115.99366019441032,-80.83953654857338" stroke="black" stroke-width="1" fill="black" />
<path d="M-115.99366019441032,-80.83953654857338 L-93.8159634426053,-85.26181142277703" stroke="black" stroke-width="1" fill="black" />
<path d="M-93.8159634426053,-85.26181142277703 L-94.61132177820197,-98.75858029531913" stroke="black" stroke-width="1" fill="black" />
<path d="M-94.61132177820197,-98.75858029531913 L-93.8159634426053,-85.26181142277703" stroke="black" stroke-width="1" fill="black" />
<path d="M-93.8159634426053,-85.26181142277703 L-53.90111551447474,-91.05489823599532" stroke="black" stroke-width="1" fill="black" />
<path d="M-45.97721495935741,-114.25694954092445 L-29.90240490051549,-114.75808842569842" stroke="black" stroke-width="1" fill="black" />
<path d="M-29.90240490051549,-114.75808842569842 L-33.86307972964478,-106.70141506043223" stroke="black" stroke-width="1" fill="black" />
<path d="M-33.86307972964478,-106.70141506043223 L-41.95527394342375,-108.61922260245326" stroke="black" stroke-width="1" fill="black" />
<path d="M-41.95527394342375,-108.61922260245326 L-53.90111551447474,-91.05489823599532" stroke="black" stroke-width="1" fill="black" />
<path d="M-93.8159634426053,-85.26181142277703 L-98.59668518385546,-72.05884852876187" stroke="black" stroke-width="1" fill="black" />
<path d="M-98.59668518385546,-72.05884852876187 L-95.34364765276642,-61.05838549061613" stroke="black" stroke-width="1" fill="black" />
<path d="M-193.9561643255941,122.2333685567377 L-188.65757808806615,126.32421475188333" stroke="black" stroke-width="1" fill="black" />
<path d="M87.69973692552664,-65.55072167331478 L92.58417602211725,-41.870042339513084" stroke="black" stroke-width="1" fill="black" />
<path d="M92.58417602211725,-41.870042339513084 L84.68610617746451,-25.15026327289287" stroke="black" stroke-width="1" fill="black" />
<path d="M84.68610617746451,-25.15026327289287 L92.58417602211725,-41.870042339513084" stroke="black" stroke-width="1" fill="black" />
<path d="M92.58417602211725,-41.870042339513084 L95.60860223904743,-43.06438937418012" stroke="black" stroke-width="1" fill="black" />
<path d="M95.60860223904743,-43.06438937418012 L98.54534023769416,-44.69760236698375" stroke="black" stroke-width="1" fill="black" />
<path d="M98.54534023769416,-44.69760236698375 L105.76583489782895,-60.236900690309156" stroke="black" stroke-width="1" fill="black" />
<path d="M105.76583489782895,-60.236900690309156 L98.54534023769416,-44.69760236698375" stroke="black" stroke-width="1" fill="black" />
<path d="M98.54534023769416,-44.69760236698375 L101.95060003692964,-38.71827583363156" stroke="black" stroke-width="1" fill="black" />
<path d="M101.95060003692964,-38.71827583363156 L104.24398018384169,-23.527356315770668" stroke="black" stroke-width="1" fill="black" />
<path d="M87.69973692552664,-65.55072167331478 L105.76583489782895,-60.236900690309156" stroke="black" stroke-width="1" fill="black" />
<path d="M105.76583489782895,-60.236900690309156 L100.81985306184448,-70.24219971066465" stroke="black" stroke-width="1" fill="black" />
<path d="M100.81985306184448,-70.24219971066465 L100.81985306184448,-70.24219971066465" stroke="black" stroke-width="1" fill="black" />
<path d="M100.81985306184448,-70.24219971066465 L87.69973692552664,-65.55072167331478" stroke="black" stroke-width="1" fill="black" />
<path d="M122.47390538462115,-82.47228030837937 L127.42099351225657,-76.50008747331773" stroke="black" stroke-width="1" fill="black" />
<path d="M127.42099351225657,-76.50008747331773 L127.0607637729666,-67.00978181166242" stroke="black" stroke-width="1" fill="black" />
<path d="M127.0607637729666,-67.00978181166242 L129.37764678153977,-63.09161029526731" stroke="black" stroke-width="1" fill="black" />
<path d="M129.37764678153977,-63.09161029526731 L128.90894868670856,-57.72032655637137" stroke="black" stroke-width="1" fill="black" />
<path d="M128.90894868670856,-57.72032655637137 L105.76583489782895,-60.236900690309156" stroke="black" stroke-width="1" fill="black" />
<path d="M105.76583489782895,-60.236900690309156 L128.90894868670856,-57.72032655637137" stroke="black" stroke-width="1" fill="black" />
<path d="M128.90894868670856,-57.72032655637137 L127.27357148775896,-54.261292663289005" stroke="black" stroke-width="1" fill="black" />
<path d="M127.27357148775896,-54.261292663289005 L123.46125499927506,-46.38584903872648" stroke="black" stroke-width="1" fill="black" />
<path d="M123.46125499927506,-46.38584903872648 L120.2693969404687,-45.15639294477458" stroke="black" stroke-width="1" fill="black" />
<path d="M87.69973692552664,-65.55072167331478 L84.00650635392465,-71.52072067718325" stroke="black" stroke-width="1" fill="black" />
<path d="M84.00650635392465,-71.52072067718325 L82.03766151557895,-84.4947274156658" stroke="black" stroke-width="1" fill="black" />
<path d="M79.28681562088589,-83.29604201954271 L85.11442642665386,-98.17187784219816" stroke="black" stroke-width="1" fill="black" />
<path d="M85.11442642665386,-98.17187784219816 L91.07078489831487,-98.26047154765313" stroke="black" stroke-width="1" fill="black" />
<path d="M91.07078489831487,-98.26047154765313 L82.03766151557895,-84.4947274156658" stroke="black" stroke-width="1" fill="black" />
<path d="M-184.41318958190814,194.36716927280455 L-167.02663400044693,195.8029642351208" stroke="black" stroke-width="1" fill="black" />
<path d="M-167.02663400044693,195.8029642351208 L-147.8648883971004,196.5597778503722" stroke="black" stroke-width="1" fill="black" />
<path d="M101.82453287938935,-100.11613966374595 L142.86358577678783,-83.45648798788723" stroke="black" stroke-width="1" fill="black" />
<path d="M142.86358577678783,-83.45648798788723 L147.92115485055703,-80.88742644614229" stroke="black" stroke-width="1" fill="black" />
<path d="M147.92115485055703,-80.88742644614229 L154.40564467868234,-79.28456511977883" stroke="black" stroke-width="1" fill="black" />
<path d="M154.40564467868234,-79.28456511977883 L152.78218131545847,-85.56540325346788" stroke="black" stroke-width="1" fill="black" />
<path d="M152.78218131545847,-85.56540325346788 L149.05882386960027,-91.14130233514032" stroke="black" stroke-width="1" fill="black" />
<path d="M149.05882386960027,-91.14130233514032 L109.6436792588535,-121.53349350406293" stroke="black" stroke-width="1" fill="black" />
<path d="M192.47551911746694,-52.0953474910675 L161.11379818040163,-47.51925658830864" stroke="black" stroke-width="1" fill="black" />
<path d="M193.8276957276432,-49.182622787266645 L175.47059704626307,-24.709615189103864" stroke="black" stroke-width="1" fill="black" />
<path d="M154.40564467868234,-79.28456511977883 L167.42885988957542,-67.0918562208368" stroke="black" stroke-width="1" fill="black" />
<path d="M167.42885988957542,-67.0918562208368 L192.47551911746694,-52.0953474910675" stroke="black" stroke-width="1" fill="black" />
<path d="M-128.68889379622834,-36.52453373178287 L-124.52618330254982,-63.46980893541363" stroke="black" stroke-width="1" fill="black" />
<path d="M-124.52618330254982,-63.46980893541363 L-110.9374728176772,-59.83700775380453" stroke="black" stroke-width="1" fill="black" />
<path d="M-110.9374728176772,-59.83700775380453 L-111.67943609804469,-47.201656859126345" stroke="black" stroke-width="1" fill="black" />
<path d="M-111.67943609804469,-47.201656859126345 L-128.68889379622834,-36.52453373178287" stroke="black" stroke-width="1" fill="black" />
<path d="M-128.68889379622834,-36.52453373178287 L-142.34222289701316,-30.259912370258217" stroke="black" stroke-width="1" fill="black" />
<path d="M-142.34222289701316,-30.259912370258217 L-156.02024721322175,-40.772858788368865" stroke="black" stroke-width="1" fill="black" />
<path d="M-156.02024721322175,-40.772858788368865 L-166.43689472442858,-62.267727732036626" stroke="black" stroke-width="1" fill="black" />
<path d="M-166.43689472442858,-62.267727732036626 L-156.02024721322175,-40.772858788368865" stroke="black" stroke-width="1" fill="black" />
<path d="M-156.02024721322175,-40.772858788368865 L-142.34222289701316,-30.259912370258217" stroke="black" stroke-width="1" fill="black" />
<path d="M-142.34222289701316,-30.259912370258217 L-157.34997515280108,-12.29616194653907" stroke="black" stroke-width="1" fill="black" />
<path d="M-157.34997515280108,-12.29616194653907 L-160.359579981435,7.49828112168648" stroke="black" stroke-width="1" fill="black" />
<path d="M-160.359579981435,7.49828112168648 L-157.34997515280108,-12.29616194653907" stroke="black" stroke-width="1" fill="black" />
<path d="M-157.34997515280108,-12.29616194653907 L-142.34222289701316,-30.259912370258217" stroke="black" stroke-width="1" fill="black" />
<path d="M-142.34222289701316,-30.259912370258217 L-180.81235439187788,-19.219290833568564" stroke="black" stroke-width="1" fill="black" />
</svg>