<?xml version="1.0" encoding="UTF-8"?>
<svg xmlns="http://www.w3.org/2000/svg" xmlns:xlink="http://www.w3.org/1999/xlink"
     width="400" height="400" viewBox="-200.0 -200.0 400 400">
<defs>
</defs>
<circle cx="133.86353189548112" cy="193.80927336112828" r="1.0" fill="black" stroke-width="0" />
<circle cx="31.955358721427906" cy="155.98806935630876" r="1.2" fill="black" stroke-width="0" />
<circle cx="143.47012507162117" cy="182.52926528072257" r="1.0" fill="black" stroke-width="0" />
<circle cx="149.07205566209402" cy="182.64758895297945" r="1.2" fill="black" stroke-width="0" />
<circle cx="131.01197978809827" cy="156.22313719301047" r="1.0" fill="black" stroke-width="0" />
<circle cx="101.58896404900601" cy="156.84874817278876" r="1.0" fill="black" stroke-width="0" />
<circle cx="140.26299606720698" cy="140.3276072376872" r="1.0" fill="black" stroke-width="0" />
<circle cx="120.75681390702546" cy="143.07323487121195" r="1.0" fill="black" stroke-width="0" />
<circle cx="94.27146829854081" cy="144.20170548566517" r="1.5" fill="black" stroke-width="0" />
<circle cx="109.859182795456" cy="132.59326024939733" r="1.0" fill="black" stroke-width="0" />
<circle cx="80.04929769040693" cy="138.05466324839463" r="1.2" fill="black" stroke-width="0" />
<circle cx="107.09869502650773" cy="123.20361937184549" r="1.0" fill="black" stroke-width="0" />
<circle cx="192.03180654123938" cy="17.270773469599245" r="1.0" fill="black" stroke-width="0" />
<circle cx="125.59326849882527" cy="88.59482923745486" r="1.2" fill="black" stroke-width="0" />
<circle cx="144.49009036895464" cy="60.432101962171004" r="1.0" fill="black" stroke-width="0" />
<circle cx="154.41743354166573" cy="40.964477680558154" r="1.0" fill="black" stroke-width="0" />
<circle cx="193.8276957276432" cy="-49.182622787266645" r="1.0" fill="black" stroke-width="0" />
<circle cx="192.47551911746694" cy="-52.0953474910675" r="1.0" fill="black" stroke-width="0" />
<circle cx="165.89607624217194" cy="4.606169575959433" r="1.0" fill="black" stroke-width="0" />
<circle cx="175.47059704626307" cy="-24.709615189103864" r="1.0" fill="black" stroke-width="0" />
<circle cx="158.66972284385292" cy="1.9662318713459432" r="1.0" fill="black" stroke-width="0" />
<circle cx="60.18030121692862" cy="110.6493535864693" r="1.0" fill="black" stroke-width="0" />
<circle cx="184.93079300244335" cy="-137.2298846145905" r="1.0" fill="black" stroke-width="0" />
<circle cx="184.9181803316572" cy="-105.6181852375068" r="1.0" fill="black" stroke-width="0" />
<circle cx="177.58204612172744" cy="-180.00664269187266" r="1.0" fill="black" stroke-width="0" />
<circle cx="184.15129445987031" cy="-106.59874289206519" r="1.0" fill="black" stroke-width="0" />
<circle cx="38.569402150936504" cy="122.37253461437612" r="1.0" fill="black" stroke-width="0" />
<circle cx="182.71014692469294" cy="-105.68434709872818" r="1.2" fill="black" stroke-width="0" />
<circle cx="181.29222620920157" cy="-105.55554934703481" r="1.0" fill="black" stroke-width="0" />
<circle cx="176.84681184464827" cy="-135.07154906220202" r="1.2" fill="black" stroke-width="0" />
<circle cx="169.8500336787613" cy="-167.10844159379414" r="1.2" fill="black" stroke-width="0" />
<circle cx="144.56258446814593" cy="6.947182956759655" r="1.2" fill="black" stroke-width="0" />
<circle cx="171.52233182151906" cy="-150.00462210562577" r="1.0" fill="black" stroke-width="0" />
<circle cx="167.42885988957542" cy="-67.0918562208368" r="1.0" fill="black" stroke-width="0" />
<circle cx="161.11379818040163" cy="-47.51925658830864" r="1.0" fill="black" stroke-width="0" />
<circle cx="154.13150033268056" cy="-197.16303427633397" r="1.0" fill="black" stroke-width="0" />
<circle cx="95.48955300729261" cy="64.67600287803408" r="1.0" fill="black" stroke-width="0" />
<circle cx="59.914850349212465" cy="100.23106949828926" r="1.0" fill="black" stroke-width="0" />
<circle cx="106.8610760217918" cy="46.607704099607176" r="1.0" fill="black" stroke-width="0" />
<circle cx="154.40564467868234" cy="-79.28456511977883" r="1.0" fill="black" stroke-width="0" />
<circle cx="152.78218131545847" cy="-85.56540325346788" r="1.0" fill="black" stroke-width="0" />
<circle cx="103.92973146917308" cy="45.25721184978042" r="1.0" fill="black" stroke-width="0" />
<circle cx="148.02030650106767" cy="-81.15854841491625" r="1.0" fill="black" stroke-width="0" />
<circle cx="149.05882386960027" cy="-91.14130233514032" r="1.0" fill="black" stroke-width="0" />
<circle cx="147.92115485055703" cy="-80.88742644614229" r="1.0" fill="black" stroke-width="0" />
<circle cx="68.7669074892368" cy="82.98549183042724" r="1.0" fill="black" stroke-width="0" />
<circle cx="103.40995363241987" cy="34.86487574349517" r="1.0" fill="black" stroke-width="0" />
<circle cx="142.86358577678783" cy="-83.45648798788723" r="1.5" fill="black" stroke-width="0" />
<circle cx="130.96605257482318" cy="-28.370298173568862" r="1.0" fill="black" stroke-width="0" />
<circle cx="120.1234558850336" cy="-1.9520402897849645" r="1.0" fill="black" stroke-width="0" />
<circle cx="128.90894868670856" cy="-57.72032655637137" r="1.0" fill="black" stroke-width="0" />
<circle cx="129.37764678153977" cy="-63.09161029526731" r="1.0" fill="black" stroke-width="0" />
<circle cx="127.27357148775896" cy="-54.261292663289005" r="1.0" fill="black" stroke-width="0" />
<circle cx="123.46125499927506" cy="-46.38584903872648" r="1.0" fill="black" stroke-width="0" />
<circle cx="127.0607637729666" cy="-67.00978181166242" r="1.0" fill="black" stroke-width="0" />
<circle cx="127.42099351225657" cy="-76.50008747331773" r="1.0" fill="black" stroke-width="0" />
<circle cx="129.055543213133" cy="-136.6802789804945" r="1.2" fill="black" stroke-width="0" />
<circle cx="120.2693969404687" cy="-45.15639294477458" r="1.0" fill="black" stroke-width="0" />
<circle cx="121.28301210808353" cy="-173.46878874482573" r="1.0" fill="black" stroke-width="0" />
<circle cx="122.52094543057687" cy="-163.5238631879073" r="1.0" fill="black" stroke-width="0" />
<circle cx="122.47390538462115" cy="-82.47228030837937" r="1.0" fill="black" stroke-width="0" />
<circle cx="97.88820039323335" cy="10.106261262718197" r="1.0" fill="black" stroke-width="0" />
<circle cx="119.75055060041755" cy="-163.70084541143996" r="1.0" fill="black" stroke-width="0" />
<circle cx="110.25109808132487" cy="-29.786563555766094" r="1.2" fill="black" stroke-width="0" />
<circle cx="99.27430891038016" cy="-4.984889046218403" r="1.0" fill="black" stroke-width="0" />
<circle cx="104.24398018384169" cy="-23.527356315770668" r="1.5" fill="black" stroke-width="0" />
<circle cx="110.37337814013459" cy="-179.6596137871025" r="1.5" fill="black" stroke-width="0" />
<circle cx="103.35773432037578" cy="-27.19777580364199" r="1.0" fill="black" stroke-width="0" />
<circle cx="101.95060003692964" cy="-38.71827583363156" r="1.0" fill="black" stroke-width="0" />
<circle cx="105.76583489782895" cy="-60.236900690309156" r="1.5" fill="black" stroke-width="0" />
<circle cx="109.6436792588535" cy="-121.53349350406293" r="1.5" fill="black" stroke-width="0" />
<circle cx="87.77688274655479" cy="2.169784755991853" r="1.2" fill="black" stroke-width="0" />
<circle cx="73.98063255503054" cy="32.39155437297039" r="1.0" fill="black" stroke-width="0" />
<circle cx="98.54534023769416" cy="-44.69760236698375" r="1.2" fill="black" stroke-width="0" />
<circle cx="87.64436001782988" cy="-4.963148978645627" r="1.2" fill="black" stroke-width="0" />
<circle cx="43.41892426501272" cy="85.5538986034277" r="1.0" fill="black" stroke-width="0" />
<circle cx="100.81985306184448" cy="-70.24219971066465" r="1.0" fill="black" stroke-width="0" />
<circle cx="93.6328148422475" cy="-31.991372472381922" r="1.2" fill="black" stroke-width="0" />
<circle cx="95.60860223904743" cy="-43.06438937418012" r="1.5" fill="black" stroke-width="0" />
<circle cx="101.82453287938935" cy="-100.11613966374595" r="1.2" fill="black" stroke-width="0" />
<circle cx="93.43993279456667" cy="-40.09065067410917" r="1.0" fill="black" stroke-width="0" />
<circle cx="71.68765114810569" cy="27.996224773171246" r="1.2" fill="black" stroke-width="0" />
<circle cx="92.58417602211725" cy="-41.870042339513084" r="1.5" fill="black" stroke-width="0" />
<circle cx="78.50387686385002" cy="3.025406486896358" r="1.0" fill="black" stroke-width="0" />
<circle cx="82.17967176826852" cy="-13.709797149619387" r="1.0" fill="black" stroke-width="0" />
<circle cx="52.94096006761374" cy="60.869892776623324" r="1.0" fill="black" stroke-width="0" />
<circle cx="84.68610617746451" cy="-25.15026327289287" r="1.2" fill="black" stroke-width="0" />
<circle cx="65.55239149825096" cy="29.515149967209492" r="1.0" fill="black" stroke-width="0" />
<circle cx="76.17710924677134" cy="-1.3608633306742686" r="1.0" fill="black" stroke-width="0" />
<circle cx="91.73653244545278" cy="-153.38098965912496" r="1.0" fill="black" stroke-width="0" />
<circle cx="91.07078489831487" cy="-98.26047154765313" r="1.0" fill="black" stroke-width="0" />
<circle cx="87.69973692552664" cy="-65.55072167331478" r="1.5" fill="black" stroke-width="0" />
<circle cx="77.59768778279752" cy="-16.444894949660846" r="1.0" fill="black" stroke-width="0" />
<circle cx="56.547325621125054" cy="42.46434567895587" r="1.0" fill="black" stroke-width="0" />
<circle cx="84.73019111270014" cy="-171.86125441316258" r="1.5" fill="black" stroke-width="0" />
<circle cx="87.13336870223553" cy="-146.875739413232" r="1.2" fill="black" stroke-width="0" />
<circle cx="84.00650635392465" cy="-71.52072067718325" r="1.0" fill="black" stroke-width="0" />
<circle cx="85.11442642665386" cy="-98.17187784219816" r="1.0" fill="black" stroke-width="0" />
<circle cx="85.28562626165719" cy="-106.50912001543604" r="1.0" fill="black" stroke-width="0" />
<circle cx="82.03766151557895" cy="-84.4947274156658" r="1.0" fill="black" stroke-width="0" />
<circle cx="79.28681562088589" cy="-83.29604201954271" r="1.0" fill="black" stroke-width="0" />
<circle cx="71.44068128025145" cy="-35.79072985955086" r="1.0" fill="black" stroke-width="0" />
<circle cx="78.60984238727823" cy="-104.66687411282439" r="1.0" fill="black" stroke-width="0" />
<circle cx="56.96625573496625" cy="13.628751496456632" r="1.0" fill="black" stroke-width="0" />
<circle cx="54.171990725659846" cy="20.25966338082061" r="1.0" fill="black" stroke-width="0" />
<circle cx="62.24213584812988" cy="-11.62272712279268" r="1.5" fill="black" stroke-width="0" />
<circle cx="73.69714250678062" cy="-104.81673409740897" r="1.2" fill="black" stroke-width="0" />
<circle cx="40.065182859441926" cy="59.01385784074547" r="1.5" fill="black" stroke-width="0" />
<circle cx="63.59322342200247" cy="-35.44945266429248" r="1.0" fill="black" stroke-width="0" />
<circle cx="69.89990910795913" cy="-98.9864258989672" r="1.0" fill="black" stroke-width="0" />
<circle cx="54.77399417181075" cy="-10.401211898212575" r="1.0" fill="black" stroke-width="0" />
<circle cx="64.28506322656743" cy="-89.68217722062533" r="1.5" fill="black" stroke-width="0" />
<circle cx="42.018805193339354" cy="38.12809921199886" r="1.0" fill="black" stroke-width="0" />
<circle cx="61.28286575169438" cy="-111.88236501359958" r="1.0" fill="black" stroke-width="0" />
<circle cx="51.6234429697642" cy="-16.43584414613115" r="1.5" fill="black" stroke-width="0" />
<circle cx="59.37935996525309" cy="-81.48061919180992" r="1.0" fill="black" stroke-width="0" />
<circle cx="26.239374645867073" cy="75.63936416988271" r="1.0" fill="black" stroke-width="0" />
<circle cx="42.899424488477834" cy="15.283769211954876" r="1.0" fill="black" stroke-width="0" />
<circle cx="33.283310216595275" cy="51.95313245175656" r="1.2" fill="black" stroke-width="0" />
<circle cx="55.82247352100714" cy="-135.74644752521525" r="1.0" fill="black" stroke-width="0" />
<circle cx="44.493135980024704" cy="-1.9501871474564372" r="1.0" fill="black" stroke-width="0" />
<circle cx="40.599369218480774" cy="7.345084056400203" r="1.5" fill="black" stroke-width="0" />
<circle cx="39.62627207299474" cy="4.991935570025623" r="1.0" fill="black" stroke-width="0" />
<circle cx="40.50393815586937" cy="-3.3995767712098517" r="1.0" fill="black" stroke-width="0" />
<circle cx="49.28087191963099" cy="-100.51626552175786" r="1.0" fill="black" stroke-width="0" />
<circle cx="37.18076072020203" cy="1.3578024626302492" r="1.5" fill="black" stroke-width="0" />
<circle cx="15.72735363462257" cy="92.7168323990954" r="1.0" fill="black" stroke-width="0" />
<circle cx="45.37896107513056" cy="-125.35664770266959" r="1.0" fill="black" stroke-width="0" />
<circle cx="15.730934631781976" cy="86.62549954482193" r="1.0" fill="black" stroke-width="0" />
<circle cx="29.74702207576692" cy="22.235653105125298" r="1.2" fill="black" stroke-width="0" />
<circle cx="40.98703153990797" cy="-91.00268633725837" r="1.0" fill="black" stroke-width="0" />
<circle cx="40.146424568809245" cy="-104.18512765016732" r="1.0" fill="black" stroke-width="0" />
<circle cx="29.305768409081224" cy="6.13062432755502" r="1.2" fill="black" stroke-width="0" />
<circle cx="37.044956549793504" cy="-118.88211674656107" r="1.0" fill="black" stroke-width="0" />
<circle cx="35.12604244134492" cy="-72.2414849533953" r="1.2" fill="black" stroke-width="0" />
<circle cx="22.977726260176723" cy="33.972596789637294" r="1.0" fill="black" stroke-width="0" />
<circle cx="31.92223355432248" cy="-129.58947665667696" r="1.5" fill="black" stroke-width="0" />
<circle cx="31.236712494803843" cy="-116.56554159940073" r="1.0" fill="black" stroke-width="0" />
<circle cx="23.411226481933877" cy="0.32736194604447366" r="1.0" fill="black" stroke-width="0" />
<circle cx="28.151301781669257" cy="-65.7775911022654" r="1.5" fill="black" stroke-width="0" />
<circle cx="25.305371648601373" cy="-34.628655268152954" r="1.0" fill="black" stroke-width="0" />
<circle cx="8.635300061250739" cy="96.06034676553412" r="1.0" fill="black" stroke-width="0" />
<circle cx="20.77495553914724" cy="4.402908109354806" r="1.0" fill="black" stroke-width="0" />
<circle cx="26.38465603738452" cy="-110.30268621841408" r="1.0" fill="black" stroke-width="0" />
<circle cx="18.29018152236488" cy="22.38402274003997" r="1.0" fill="black" stroke-width="0" />
<circle cx="25.92135421775497" cy="-119.45192452701394" r="1.5" fill="black" stroke-width="0" />
<circle cx="19.066328917699913" cy="-3.996233978424246" r="1.0" fill="black" stroke-width="0" />
<circle cx="15.034404221983971" cy="27.353939011175356" r="1.0" fill="black" stroke-width="0" />
<circle cx="10.924483906271911" cy="52.6253769390288" r="1.0" fill="black" stroke-width="0" />
<circle cx="10.758003659539268" cy="25.83948099190334" r="1.2" fill="black" stroke-width="0" />
<circle cx="10.857067808384256" cy="-5.62893842781181" r="1.2" fill="black" stroke-width="0" />
<circle cx="7.624624294529172" cy="40.60289466065931" r="1.5" fill="black" stroke-width="0" />
<circle cx="8.138981717925468" cy="-75.02767765231518" r="1.0" fill="black" stroke-width="0" />
<circle cx="2.4474655062886184" cy="65.97481863539176" r="1.5" fill="black" stroke-width="0" />
<circle cx="3.0026960533532594" cy="-47.11231676866583" r="1.0" fill="black" stroke-width="0" />
<circle cx="1.2959581214063132" cy="80.50726789179514" r="1.0" fill="black" stroke-width="0" />
<circle cx="-3.526463213557073" cy="16.087306659547977" r="1.0" fill="black" stroke-width="0" />
<circle cx="-2.786700473435156" cy="51.98661257357843" r="1.0" fill="black" stroke-width="0" />
<circle cx="-3.2218832799912787" cy="39.007273564797956" r="1.0" fill="black" stroke-width="0" />
<circle cx="-6.598227622585146" cy="-103.25924334046692" r="1.0" fill="black" stroke-width="0" />
<circle cx="-5.065350364866824" cy="11.880970566718853" r="1.0" fill="black" stroke-width="0" />
<circle cx="-7.348667985324124" cy="-95.40029798896802" r="1.0" fill="black" stroke-width="0" />
<circle cx="-4.033798810970814" cy="55.78599868298908" r="1.5" fill="black" stroke-width="0" />
<circle cx="-5.168311120434066" cy="37.824745228983346" r="1.0" fill="black" stroke-width="0" />
<circle cx="-8.52871886608159" cy="-121.30322006128576" r="1.0" fill="black" stroke-width="0" />
<circle cx="-8.265451567621788" cy="-68.96352885732652" r="1.0" fill="black" stroke-width="0" />
<circle cx="-6.2669859064437174" cy="68.62935002773969" r="1.0" fill="black" stroke-width="0" />
<circle cx="-12.905753661804994" cy="-67.8594372549564" r="1.0" fill="black" stroke-width="0" />
<circle cx="-14.837352425185202" cy="-80.8882621749107" r="1.0" fill="black" stroke-width="0" />
<circle cx="-14.730899041317313" cy="-176.13605376505893" r="1.0" fill="black" stroke-width="0" />
<circle cx="-15.958618208476732" cy="-157.0044861175165" r="1.0" fill="black" stroke-width="0" />
<circle cx="-6.944684732849679" cy="81.43853785796433" r="1.0" fill="black" stroke-width="0" />
<circle cx="-17.178557795081165" cy="-173.40363043771038" r="1.0" fill="black" stroke-width="0" />
<circle cx="-11.409343517009729" cy="40.38847460078636" r="1.0" fill="black" stroke-width="0" />
<circle cx="-13.466227890983015" cy="33.038520068939974" r="1.2" fill="black" stroke-width="0" />
<circle cx="-10.936987169093241" cy="65.44361567902035" r="1.0" fill="black" stroke-width="0" />
<circle cx="-10.105614596363045" cy="72.68982964981087" r="1.0" fill="black" stroke-width="0" />
<circle cx="-8.262192723425075" cy="89.20247370866366" r="1.5" fill="black" stroke-width="0" />
<circle cx="-22.872954258345526" cy="-59.707998489581485" r="1.0" fill="black" stroke-width="0" />
<circle cx="-12.531985572877884" cy="66.32836613399773" r="1.2" fill="black" stroke-width="0" />
<circle cx="-26.35513492886803" cy="-142.93334310569028" r="1.0" fill="black" stroke-width="0" />
<circle cx="-27.714648570235596" cy="-136.29758040781897" r="1.0" fill="black" stroke-width="0" />
<circle cx="-15.309692007602942" cy="57.493950602714946" r="1.2" fill="black" stroke-width="0" />
<circle cx="-29.90240490051549" cy="-114.75808842569842" r="1.0" fill="black" stroke-width="0" />
<circle cx="-28.447765333635527" cy="-36.24647408331174" r="1.5" fill="black" stroke-width="0" />
<circle cx="-22.729172113768424" cy="28.06549889539734" r="1.0" fill="black" stroke-width="0" />
<circle cx="-17.278295652163" cy="62.208491691810565" r="1.0" fill="black" stroke-width="0" />
<circle cx="-33.86307972964478" cy="-106.70141506043223" r="1.0" fill="black" stroke-width="0" />
<circle cx="-31.914112833687224" cy="-188.93884753070188" r="1.0" fill="black" stroke-width="0" />
<circle cx="-36.07008588213215" cy="-51.52154241263002" r="1.0" fill="black" stroke-width="0" />
<circle cx="-38.28642251951706" cy="-75.69976969862438" r="1.0" fill="black" stroke-width="0" />
<circle cx="-18.552478725327713" cy="74.68839824919851" r="1.0" fill="black" stroke-width="0" />
<circle cx="-41.95527394342375" cy="-108.61922260245326" r="1.2" fill="black" stroke-width="0" />
<circle cx="-17.60218331009392" cy="80.35232678384355" r="1.2" fill="black" stroke-width="0" />
<circle cx="-45.97721495935741" cy="-114.25694954092445" r="1.0" fill="black" stroke-width="0" />
<circle cx="-25.974658178564603" cy="58.70854187597037" r="1.0" fill="black" stroke-width="0" />
<circle cx="-53.90111551447474" cy="-91.05489823599532" r="1.0" fill="black" stroke-width="0" />
<circle cx="-53.91183057831148" cy="-79.62479879090942" r="1.5" fill="black" stroke-width="0" />
<circle cx="-49.49912350321638" cy="-26.10810198096028" r="1.0" fill="black" stroke-width="0" />
<circle cx="-19.717479276252284" cy="92.9401168313636" r="1.0" fill="black" stroke-width="0" />
<circle cx="-38.7583637498287" cy="34.85116588747027" r="1.0" fill="black" stroke-width="0" />
<circle cx="-59.865893010400896" cy="-107.46114422784696" r="1.0" fill="black" stroke-width="0" />
<circle cx="-27.27590541899545" cy="74.56407554371957" r="1.0" fill="black" stroke-width="0" />
<circle cx="-58.4321099425416" cy="-162.47326064481723" r="1.0" fill="black" stroke-width="0" />
<circle cx="-61.57164333210587" cy="-98.34195805801525" r="1.2" fill="black" stroke-width="0" />
<circle cx="-61.77595925468975" cy="-158.31264509414632" r="1.0" fill="black" stroke-width="0" />
<circle cx="-17.92514181545082" cy="102.42986731741215" r="1.0" fill="black" stroke-width="0" />
<circle cx="-55.701434160461815" cy="-15.430372730363686" r="1.0" fill="black" stroke-width="0" />
<circle cx="-32.07717117720244" cy="70.18336769581829" r="1.0" fill="black" stroke-width="0" />
<circle cx="-30.724600766089633" cy="76.72707780844138" r="1.0" fill="black" stroke-width="0" />
<circle cx="-67.53934428158429" cy="-72.33099486840837" r="1.0" fill="black" stroke-width="0" />
<circle cx="-42.9366840752227" cy="49.733421774732086" r="1.0" fill="black" stroke-width="0" />
<circle cx="-30.822673439734828" cy="83.49344793221384" r="1.2" fill="black" stroke-width="0" />
<circle cx="-45.17375242113865" cy="53.353051675495" r="1.2" fill="black" stroke-width="0" />
<circle cx="-67.82358451351456" cy="-14.244746983659867" r="1.0" fill="black" stroke-width="0" />
<circle cx="-81.57855434994413" cy="-137.43720233955412" r="1.0" fill="black" stroke-width="0" />
<circle cx="-38.791397460706804" cy="73.33985124077266" r="1.0" fill="black" stroke-width="0" />
<circle cx="-42.59708305716664" cy="75.59161041515925" r="1.0" fill="black" stroke-width="0" />
<circle cx="-88.68517482000496" cy="-170.84483777750236" r="1.0" fill="black" stroke-width="0" />
<circle cx="-94.61132177820197" cy="-98.75858029531913" r="1.2" fill="black" stroke-width="0" />
<circle cx="-93.8159634426053" cy="-85.26181142277703" r="1.0" fill="black" stroke-width="0" />
<circle cx="-97.4574382024341" cy="-134.78918864297006" r="1.0" fill="black" stroke-width="0" />
<circle cx="-83.98234281413603" cy="-13.311347453628342" r="1.0" fill="black" stroke-width="0" />
<circle cx="-50.904973018382705" cy="68.53672560937017" r="1.0" fill="black" stroke-width="0" />
<circle cx="-95.34364765276642" cy="-61.05838549061613" r="1.0" fill="black" stroke-width="0" />
<circle cx="-98.59668518385546" cy="-72.05884852876187" r="1.0" fill="black" stroke-width="0" />
<circle cx="-77.81052923681138" cy="25.22646980580151" r="1.0" fill="black" stroke-width="0" />
<circle cx="-44.153981844309655" cy="87.5673781036771" r="1.0" fill="black" stroke-width="0" />
<circle cx="-40.83983893722849" cy="96.12389695277612" r="1.0" fill="black" stroke-width="0" />
<circle cx="-110.9374728176772" cy="-59.83700775380453" r="1.0" fill="black" stroke-width="0" />
<circle cx="-108.98406098640963" cy="-186.16972111318358" r="1.0" fill="black" stroke-width="0" />
<circle cx="-115.99366019441032" cy="-80.83953654857338" r="1.2" fill="black" stroke-width="0" />
<circle cx="-111.67943609804469" cy="-47.201656859126345" r="1.0" fill="black" stroke-width="0" />
<circle cx="-124.52618330254982" cy="-63.46980893541363" r="1.0" fill="black" stroke-width="0" />
<circle cx="-69.5773158748598" cy="70.25799872435813" r="1.2" fill="black" stroke-width="0" />
<circle cx="-104.03636283457442" cy="13.459384291488952" r="1.0" fill="black" stroke-width="0" />
<circle cx="-68.19255702182839" cy="74.10390532410361" r="1.0" fill="black" stroke-width="0" />
<circle cx="-59.39289574062514" cy="86.64485965483809" r="1.2" fill="black" stroke-width="0" />
<circle cx="-112.01722080226769" cy="3.439631962616438" r="1.2" fill="black" stroke-width="0" />
<circle cx="-128.68889379622834" cy="-36.52453373178287" r="1.0" fill="black" stroke-width="0" />
<circle cx="-58.11354579494042" cy="90.88950644223833" r="1.0" fill="black" stroke-width="0" />
<circle cx="-54.57776976834363" cy="96.67346242516487" r="1.5" fill="black" stroke-width="0" />
<circle cx="-76.19513575674881" cy="73.95831163960412" r="1.0" fill="black" stroke-width="0" />
<circle cx="-120.77306340510425" cy="4.460165912430225" r="1.2" fill="black" stroke-width="0" />
<circle cx="-65.88366351310971" cy="87.2037102914743" r="1.5" fill="black" stroke-width="0" />
<circle cx="-38.663070054566596" cy="112.68853368228385" r="1.0" fill="black" stroke-width="0" />
<circle cx="-115.50592663510176" cy="21.283544613847386" r="1.2" fill="black" stroke-width="0" />
<circle cx="-45.166558076346085" cy="108.68574298175695" r="1.2" fill="black" stroke-width="0" />
<circle cx="-81.7778106842463" cy="73.30033668965004" r="1.0" fill="black" stroke-width="0" />
<circle cx="-82.26004411922399" cy="75.09339807602416" r="1.2" fill="black" stroke-width="0" />
<circle cx="-142.34222289701316" cy="-30.259912370258217" r="1.2" fill="black" stroke-width="0" />
<circle cx="-48.501130355655135" cy="108.70818918457157" r="1.0" fill="black" stroke-width="0" />
<circle cx="-65.03415701774003" cy="95.48196040925141" r="1.5" fill="black" stroke-width="0" />
<circle cx="-156.02024721322175" cy="-40.772858788368865" r="1.0" fill="black" stroke-width="0" />
<circle cx="-163.93552804361983" cy="-159.13972598691083" r="1.2" fill="black" stroke-width="0" />
<circle cx="-166.43689472442858" cy="-62.267727732036626" r="1.2" fill="black" stroke-width="0" />
<circle cx="-43.33367218975254" cy="116.64983393168843" r="1.0" fill="black" stroke-width="0" />
<circle cx="-157.34997515280108" cy="-12.29616194653907" r="1.0" fill="black" stroke-width="0" />
<circle cx="-138.88838874430337" cy="34.77673546830976" r="1.2" fill="black" stroke-width="0" />
<circle cx="-116.82629874104526" cy="64.21061656202197" r="1.2" fill="black" stroke-width="0" />
<circle cx="-160.359579981435" cy="7.49828112168648" r="1.5" fill="black" stroke-width="0" />
<circle cx="-115.7514860317517" cy="73.26292614843705" r="1.0" fill="black" stroke-width="0" />
<circle cx="-180.81235439187788" cy="-19.219290833568564" r="1.0" fill="black" stroke-width="0" />
<circle cx="-89.05255084164223" cy="100.28301529210579" r="1.2" fill="black" stroke-width="0" />
<circle cx="-117.48131574690284" cy="84.63024047775237" r="1.0" fill="black" stroke-width="0" />
<circle cx="-115.81306680476602" cy="86.05429089283942" r="1.0" fill="black" stroke-width="0" />
<circle cx="-106.80300793926625" cy="96.39629013216373" r="1.2" fill="black" stroke-width="0" />
<circle cx="-119.40952920552137" cy="88.95772385862655" r="1.0" fill="black" stroke-width="0" />
<circle cx="-113.37648837913305" cy="93.65508000972099" r="1.0" fill="black" stroke-width="0" />
<circle cx="-77.13556028767013" cy="117.17715445755701" r="1.5" fill="black" stroke-width="0" />
<circle cx="-156.7204178265602" cy="62.552861945730186" r="1.0" fill="black" stroke-width="0" />
<circle cx="-135.33698393691148" cy="82.40282077098281" r="1.2" fill="black" stroke-width="0" />
<circle cx="-116.01581563530974" cy="104.36669418649902" r="1.0" fill="black" stroke-width="0" />
<circle cx="-130.45115909136558" cy="106.06907607307363" r="1.2" fill="black" stroke-width="0" />
<circle cx="-80.2121452086974" cy="129.10814607207283" r="1.5" fill="black" stroke-width="0" />
<circle cx="-80.2155876823484" cy="129.11443968350414" r="1.5" fill="black" stroke-width="0" />
<circle cx="-117.77913540917149" cy="116.40062830550417" r="1.2" fill="black" stroke-width="0" />
<circle cx="-68.97813088133393" cy="133.0342094887267" r="1.0" fill="black" stroke-width="0" />
<circle cx="-30.07159079140955" cy="139.44679486582115" r="1.0" fill="black" stroke-width="0" />
<circle cx="-133.63811550536366" cy="119.34831508205859" r="1.2" fill="black" stroke-width="0" />
<circle cx="-136.83251098690573" cy="118.34596228793637" r="1.0" fill="black" stroke-width="0" />
<circle cx="-188.72747786639067" cy="92.43225896876808" r="1.0" fill="black" stroke-width="0" />
<circle cx="-123.30665585022074" cy="127.39482226589614" r="1.0" fill="black" stroke-width="0" />
<circle cx="-119.28581399664733" cy="132.52427112682332" r="1.0" fill="black" stroke-width="0" />
<circle cx="-109.02612877561084" cy="135.48876257823989" r="1.0" fill="black" stroke-width="0" />
<circle cx="-59.658310935983714" cy="144.5874154407081" r="1.2" fill="black" stroke-width="0" />
<circle cx="-146.57963702514078" cy="129.43414396934392" r="1.0" fill="black" stroke-width="0" />
<circle cx="-161.0037978063921" cy="124.03849202847927" r="1.0" fill="black" stroke-width="0" />
<circle cx="-133.75543483897673" cy="134.5463555705722" r="1.0" fill="black" stroke-width="0" />
<circle cx="-147.6839265540113" cy="138.66919137813196" r="1.2" fill="black" stroke-width="0" />
<circle cx="-193.9561643255941" cy="122.2333685567377" r="1.0" fill="black" stroke-width="0" />
<circle cx="-188.65757808806615" cy="126.32421475188333" r="1.0" fill="black" stroke-width="0" />
<circle cx="-178.23122209774297" cy="141.55811971543778" r="1.0" fill="black" stroke-width="0" />
<circle cx="-75.15791571169692" cy="156.19907338589698" r="1.2" fill="black" stroke-width="0" />
<circle cx="-197.00984947942024" cy="140.43606767099453" r="1.0" fill="black" stroke-width="0" />
<circle cx="-162.02761272983466" cy="153.48838983038755" r="1.0" fill="black" stroke-width="0" />
<circle cx="-73.41208799355404" cy="163.20944396133206" r="1.0" fill="black" stroke-width="0" />
<circle cx="-27.772667478583013" cy="153.49942076858306" r="1.0" fill="black" stroke-width="0" />
<circle cx="-54.01551484457548" cy="168.52356634381374" r="1.5" fill="black" stroke-width="0" />
<circle cx="-85.23747430647582" cy="180.3338653450025" r="1.0" fill="black" stroke-width="0" />
<circle cx="-184.41318958190814" cy="194.36716927280455" r="1.2" fill="black" stroke-width="0" />
<circle cx="-167.02663400044693" cy="195.8029642351208" r="1.0" fill="black" stroke-width="0" />
<circle cx="-167.1436014222433" cy="196.22317571637214" r="1.0" fill="black" stroke-width="0" />
<circle cx="-147.8648883971004" cy="196.5597778503722" r="1.0" fill="black" stroke-width="0" />
<circle cx="-94.42618941982208" cy="187.6808972216547" r="1.0" fill="black" stroke-width="0" />
<circle cx="-72.41695247094884" cy="194.93408409560024" r="1.0" fill="black" stroke-width="0" />
<circle cx="-57.0459419229641" cy="191.9013362572066" r="1.0" fill="black" stroke-width="0" />
<circle cx="-7.631702349685912" cy="190.17791178738764" r="1.0" fill="black" stroke-width="0" />
<circle cx="11.867335919139242" cy="174.02099835964864" r="1.0" fill="black" stroke-width="0" />
</svg>