<?xml version="1.0" encoding="UTF-8" standalone="no"?>
<svg
   xmlns:dc="http://purl.org/dc/elements/1.1/"
   xmlns:cc="http://creativecommons.org/ns#"
   xmlns:rdf="http://www.w3.org/1999/02/22-rdf-syntax-ns#"
   xmlns:svg="http://www.w3.org/2000/svg"
   xmlns="http://www.w3.org/2000/svg"
   id="svg6"
   version="1.1"
   viewBox="-32.0 -32.0 64 64"
   height="64"
   width="64">
  <metadata
     id="metadata10">
    <rdf:RDF>
      <cc:Work
         rdf:about="">
        <dc:format>image/svg+xml</dc:format>
        <dc:type
           rdf:resource="http://purl.org/dc/dcmitype/StillImage" />
      </cc:Work>
    </rdf:RDF>
  </metadata>
  <defs
     id="defs2" />
  <g
     id="text4"
     style="font-size:64px;fill:#000000"
     aria-label="☿">
    <path
       id="path12"
       style="font-size:64px;fill:#000000"
       d="m -4.71875,-2.6875 q 1.25,0.8125 2.375,1.9375 4.15625,4.09375 4.15625,10 0,5.875 -4.125,9.75 -3.375,3.125 -7.84375,3.5625 v 6.53125 l 6.75,-0.0625 v 3.125 l -6.875,0.03125 L -10.25,38.5 h -4.03125 l -0.03125,-6.34375 h -6.3125 v -3.0625 h 6.3125 L -14.375,22.5625 q -4.59375,-0.40625 -8,-3.5625 -4.15625,-3.875 -4.15625,-9.75 0,-5.90625 4.15625,-10 1.125,-1.125 2.375,-1.9375 -1.25,-0.78125 -2.375,-1.9375 -4.15625,-4.09375 -4.15625,-9.96875 v -0.25 h 4.4375 v 0.3125 q 0,4.0625 2.84375,6.875 2.65625,2.59375 6.3125,2.8125 h 1.1875 q 3.625,-0.21875 6.28125,-2.8125 2.84375,-2.8125 2.84375,-6.875 v -0.3125 h 4.4375 v 0.25 q 0,5.875 -4.15625,9.96875 -1.125,1.15625 -2.375,1.9375 z M -11.75,-0.5 h -1.1875 q -3.65625,0.1875 -6.3125,2.8125 -2.84375,2.78125 -2.84375,6.84375 0,4.0625 2.84375,6.71875 2.875,2.65625 6.9375,2.65625 3.96875,0 6.8125,-2.65625 2.875,-2.65625 2.875,-6.71875 0,-4.0625 -2.84375,-6.84375 Q -8.125,-0.3125 -11.75,-0.5 Z" />
  </g>
</svg>
