<?xml version="1.0" encoding="UTF-8" standalone="no"?>
<svg
   xmlns:dc="http://purl.org/dc/elements/1.1/"
   xmlns:cc="http://creativecommons.org/ns#"
   xmlns:rdf="http://www.w3.org/1999/02/22-rdf-syntax-ns#"
   xmlns:svg="http://www.w3.org/2000/svg"
   xmlns="http://www.w3.org/2000/svg"
   id="svg6"
   version="1.1"
   viewBox="-32.0 -32.0 64 64"
   height="64"
   width="64">
  <metadata
     id="metadata10">
    <rdf:RDF>
      <cc:Work
         rdf:about="">
        <dc:format>image/svg+xml</dc:format>
        <dc:type
           rdf:resource="http://purl.org/dc/dcmitype/StillImage" />
      </cc:Work>
    </rdf:RDF>
  </metadata>
  <defs
     id="defs2" />
  <g
     id="text4"
     style="font-size:64px;fill:#000000"
     aria-label="♀">
    <path
       id="path12"
       style="font-size:64px;fill:#000000"
       d="m -8.5625,-9.21875 q -5.125,0 -8.75,3.5625 -3.59375,3.5625 -3.59375,8.6875 0,5.09375 3.59375,8.46875 3.625,3.375 8.75,3.375 5.03125,0 8.6875,-3.375 3.65625,-3.375 3.65625,-8.46875 0,-5.125 -3.65625,-8.6875 -3.65625,-3.5625 -8.6875,-3.5625 z M -21.25,15.375 q -5.28125,-4.90625 -5.28125,-12.34375 0,-7.46875 5.25,-12.65625 5.25,-5.1875 12.71875,-5.1875 7.375,0 12.65625,5.1875 5.3125,5.1875 5.3125,12.65625 0,7.46875 -5.28125,12.34375 -4.25,3.9375 -9.875,4.5 v 8.25 h 8.5 V 32 h -8.5 v 8.03125 h -5.625 V 32 h -8.5 v -3.875 h 8.5 V 19.84375 Q -17.03125,19.3125 -21.25,15.375 Z" />
  </g>
</svg>
