<?xml version="1.0" encoding="UTF-8" standalone="no"?>
<svg
   xmlns:dc="http://purl.org/dc/elements/1.1/"
   xmlns:cc="http://creativecommons.org/ns#"
   xmlns:rdf="http://www.w3.org/1999/02/22-rdf-syntax-ns#"
   xmlns:svg="http://www.w3.org/2000/svg"
   xmlns="http://www.w3.org/2000/svg"
   id="svg6"
   version="1.1"
   viewBox="-32.0 -32.0 64 64"
   height="64"
   width="64">
  <metadata
     id="metadata10">
    <rdf:RDF>
      <cc:Work
         rdf:about="">
        <dc:format>image/svg+xml</dc:format>
        <dc:type
           rdf:resource="http://purl.org/dc/dcmitype/StillImage" />
      </cc:Work>
    </rdf:RDF>
  </metadata>
  <defs
     id="defs2" />
  <g
     id="text4"
     style="font-size:64px;fill:#000000"
     aria-label="♂">
    <path
       id="path12"
       style="font-size:64px;fill:#000000"
       d="m -8.96875,3.3125 q -5.125,0 -8.75,3.5625 -3.59375,3.5625 -3.59375,8.6875 0,5.125 3.59375,8.5 3.625,3.375 8.75,3.375 5.03125,0 8.6875,-3.375 3.65625,-3.375 3.65625,-8.5 0,-5.125 -3.65625,-8.6875 -3.65625,-3.5625 -8.6875,-3.5625 z m 12.875,24.46875 q -5.25,5.125 -12.875,5.125 -7.34375,0 -12.65625,-4.9375 Q -26.9375,23 -26.9375,15.5625 q 0,-7.4375 5.375,-12.75 5.40625,-5.34375 12.59375,-5.0625 7.125,0.25 10.625,3.46875 L 12.9375,-9.65625 H 1.34375 l 4.375,-4.4375 h 15.4375 v 15.375 L 16.6875,5.75 V -5.90625 L 5.5,4.96875 Q 9,9.53125 9,15.5625 q 0,7.25 -5.09375,12.21875 z" />
  </g>
</svg>
