<?xml version="1.0" encoding="UTF-8" standalone="no"?>
<svg
   xmlns:dc="http://purl.org/dc/elements/1.1/"
   xmlns:cc="http://creativecommons.org/ns#"
   xmlns:rdf="http://www.w3.org/1999/02/22-rdf-syntax-ns#"
   xmlns:svg="http://www.w3.org/2000/svg"
   xmlns="http://www.w3.org/2000/svg"
   id="svg6"
   version="1.1"
   viewBox="-32.0 -32.0 64 64"
   height="64"
   width="64">
  <metadata
     id="metadata10">
    <rdf:RDF>
      <cc:Work
         rdf:about="">
        <dc:format>image/svg+xml</dc:format>
        <dc:type
           rdf:resource="http://purl.org/dc/dcmitype/StillImage" />
      </cc:Work>
    </rdf:RDF>
  </metadata>
  <defs
     id="defs2" />
  <g
     id="text4"
     style="font-size:64px;fill:#000000"
     aria-label="♈">
    <path
       id="path12"
       style="font-size:64px;fill:#000000"
       d="m -5.3125,32 q 0,-18.75 -4.46875,-30.8125 -4.46875,-12.09375 -9.75,-12.09375 -4.03125,0 -4.5625,3.09375 -0.53125,3.0625 -0.53125,4.125 0,4 2.625,8 h -4.1875 q -2.90625,-4.125 -2.90625,-9.15625 0,-4.125 2.53125,-7.03125 2.5625,-2.9375 7.125,-2.9375 11.625,0 15.71875,24.15625 0.25,1.53125 0.40625,2.78125 0.125,-1.25 0.375,-2.78125 4.125,-24.15625 15.71875,-24.15625 4.59375,0 7.125,2.9375 2.53125,2.90625 2.53125,7.03125 0,5.03125 -2.90625,9.15625 h -4.1875 Q 18,0.3125 18,-3.71875 q 0,-1.0625 -0.53125,-4.125 -0.53125,-3.0625 -4.59375,-3.0625 -5.25,0 -9.71875,12.09375 Q -1.3125,13.25 -1.3125,32 Z" />
  </g>
</svg>
