<?xml version="1.0" encoding="UTF-8" standalone="no"?>
<svg
   xmlns:dc="http://purl.org/dc/elements/1.1/"
   xmlns:cc="http://creativecommons.org/ns#"
   xmlns:rdf="http://www.w3.org/1999/02/22-rdf-syntax-ns#"
   xmlns:svg="http://www.w3.org/2000/svg"
   xmlns="http://www.w3.org/2000/svg"
   id="svg6"
   version="1.1"
   viewBox="-32.0 -32.0 64 64"
   height="64"
   width="64">
  <metadata
     id="metadata10">
    <rdf:RDF>
      <cc:Work
         rdf:about="">
        <dc:format>image/svg+xml</dc:format>
        <dc:type
           rdf:resource="http://purl.org/dc/dcmitype/StillImage" />
      </cc:Work>
    </rdf:RDF>
  </metadata>
  <defs
     id="defs2" />
  <g
     id="text4"
     style="font-size:64px;fill:#000000"
     aria-label="♉">
    <path
       id="path12"
       style="font-size:64px;fill:#000000"
       d="m -3.34375,5.125 q -4.59375,0 -7.8125,3.25 -3.21875,3.21875 -3.21875,7.8125 0,4.59375 3.21875,7.8125 3.21875,3.21875 7.8125,3.21875 4.59375,0 7.8125,-3.21875 3.25,-3.21875 3.25,-7.8125 0,-4.59375 -3.21875,-7.8125 -3.1875,-3.25 -7.84375,-3.25 z m 0,-4.6875 Q 0.75,0.28125 3.125,-1.625 5.8125,-3.6875 7.3125,-6.5 8.84375,-9.3125 11.34375,-12.03125 13.875,-14.75 19.65625,-14.75 v 3.375 q -3.84375,0 -6.46875,4.875 Q 10.59375,-1.625 6.5,1.75 5.84375,2.34375 5.125,2.8125 6.5625,3.75 7.90625,5.03125 q 4.5625,4.65625 4.5625,11.21875 0,6.53125 -4.625,11.15625 Q 3.25,32 -3.34375,32 q -6.5,0 -11.125,-4.59375 -4.625,-4.625 -4.625,-11.15625 0,-6.5625 4.625,-11.21875 1.28125,-1.3125 2.78125,-2.25 -0.75,-0.4375 -1.40625,-1.03125 -4.03125,-3.375 -6.71875,-8.25 -2.65625,-4.875 -6.46875,-4.875 v -3.375 q 5.78125,0 8.6875,2.71875 2.90625,2.71875 4.03125,5.53125 1.125,2.8125 3.78125,4.875 2.40625,1.90625 6.4375,2.0625 z" />
  </g>
</svg>
