<?xml version="1.0" encoding="UTF-8" standalone="no"?>
<svg
   xmlns:dc="http://purl.org/dc/elements/1.1/"
   xmlns:cc="http://creativecommons.org/ns#"
   xmlns:rdf="http://www.w3.org/1999/02/22-rdf-syntax-ns#"
   xmlns:svg="http://www.w3.org/2000/svg"
   xmlns="http://www.w3.org/2000/svg"
   id="svg6"
   version="1.1"
   viewBox="-32.0 -32.0 64 64"
   height="64"
   width="64">
  <metadata
     id="metadata10">
    <rdf:RDF>
      <cc:Work
         rdf:about="">
        <dc:format>image/svg+xml</dc:format>
        <dc:type
           rdf:resource="http://purl.org/dc/dcmitype/StillImage" />
      </cc:Work>
    </rdf:RDF>
  </metadata>
  <defs
     id="defs2" />
  <g
     id="text4"
     style="font-size:64px;fill:#000000"
     aria-label="♋">
    <path
       id="path12"
       style="font-size:64px;fill:#000000"
       d="M 12.125,12.3125 Q 10.0625,10.25 7.09375,10.25 4.125,10.25 2.0625,12.3125 0,14.375 0,17.34375 q 0,2.96875 2.0625,5.0625 2.0625,2.0625 5.03125,2.0625 2.9375,0 5,-2.0625 2.09375,-2.09375 2.09375,-5.0625 0,-2.96875 -2.0625,-5.03125 z M 1.125,30 Q -8.625,29.9375 -14.3125,29.3125 -20,28.6875 -24.78125,27.34375 v -3.875 q 7.90625,2.625 13.59375,2.96875 5.6875,0.34375 7.53125,0.34375 4.0625,0 3.8125,-0.8125 -4.09375,-3.375 -4.09375,-8.59375 0,-4.59375 3.1875,-7.8125 3.21875,-3.25 7.8125,-3.25 4.65625,0 7.875,3.25 3.21875,3.21875 3.21875,7.8125 0,4.59375 -3.25,7.8125 -2.28125,2.40625 -6.125,3.59375 Q 4.9375,29.96875 1.125,30 Z M -13.71875,8.28125 q 2.9375,0 5,-2.0625 2.09375,-2.0625 2.09375,-5.03125 0,-2.96875 -2.09375,-5.03125 -2.0625,-2.0625 -5,-2.0625 -2.9375,0 -5.03125,2.0625 -2.09375,2.0625 -2.09375,5.03125 0,2.96875 2.0625,5.03125 2.09375,2.0625 5.0625,2.0625 z m 5.9375,-19.75 Q 2,-11.40625 7.6875,-10.75 q 5.6875,0.625 10.46875,1.96875 V -4.9375 Q 10.25,-7.5625 4.59375,-7.875 -1.0625,-8.21875 -2.875,-8.21875 q -4.15625,0 -3.90625,0.8125 4.09375,3.375 4.09375,8.5625 0,4.625 -3.21875,7.875 -3.1875,3.21875 -7.78125,3.21875 -4.65625,0 -7.875,-3.21875 -3.21875,-3.25 -3.21875,-7.875 0,-4.5625 3.25,-7.78125 2.28125,-2.40625 6.09375,-3.59375 3.84375,-1.21875 7.65625,-1.25 z" />
  </g>
</svg>
