<?xml version="1.0" encoding="UTF-8" standalone="no"?>
<svg
   xmlns:dc="http://purl.org/dc/elements/1.1/"
   xmlns:cc="http://creativecommons.org/ns#"
   xmlns:rdf="http://www.w3.org/1999/02/22-rdf-syntax-ns#"
   xmlns:svg="http://www.w3.org/2000/svg"
   xmlns="http://www.w3.org/2000/svg"
   id="svg6"
   version="1.1"
   viewBox="-32.0 -32.0 64 64"
   height="64"
   width="64">
  <metadata
     id="metadata10">
    <rdf:RDF>
      <cc:Work
         rdf:about="">
        <dc:format>image/svg+xml</dc:format>
        <dc:type
           rdf:resource="http://purl.org/dc/dcmitype/StillImage" />
      </cc:Work>
    </rdf:RDF>
  </metadata>
  <defs
     id="defs2" />
  <g
     id="text4"
     style="font-size:64px;fill:#000000"
     aria-label="♌">
    <path
       id="path12"
       style="font-size:64px;fill:#000000"
       d="m -11.375,19.625 q 2.34375,-0.90625 3.125,-2.65625 0.78125,-1.78125 0.78125,-3 0,-1.09375 -0.4375,-2.1875 -0.90625,-2.34375 -2.6875,-3.125 -1.75,-0.78125 -2.96875,-0.78125 -1.125,0 -2.21875,0.4375 -2.34375,0.9375 -3.125,2.6875 -0.75,1.71875 -0.75,2.9375 0,1.09375 0.4375,2.21875 0.9375,2.375 2.65625,3.15625 1.75,0.75 2.96875,0.75 1.09375,0 2.21875,-0.4375 z M -11,-3.4375 q 0,-5.03125 3.46875,-8.15625 3.5,-3.15625 9.125,-3.15625 5.375,0 8.78125,3.46875 3.40625,3.4375 3.40625,8.9375 0,5.84375 -4.53125,13.6875 -4.53125,7.84375 -4.53125,13.46875 0.125,3.875 4.3125,3.96875 2.21875,0 5.34375,-2.75 l 2.03125,2.25 Q 12.4375,32 8.96875,32 5.875,32 3.625,30.125 1.375,28.21875 1.375,24.75 q 0,-6.21875 4.46875,-13.71875 4.5,-7.53125 4.5,-13.59375 0,-4.1875 -2.5625,-6.75 -2.5625,-2.59375 -6.6875,-2.59375 -3.96875,0 -6.3125,2.4375 -2.34375,2.40625 -2.34375,6.4375 0,1.875 0.71875,4.15625 0.71875,2.25 1.5,4.1875 1.15625,3.0625 1.28125,5.0625 0.15625,2 0.15625,2.53125 0,2.71875 -1,4.84375 -1.59375,3.59375 -5.21875,5 -1.75,0.6875 -3.5,0.6875 -1.875,0 -4.59375,-1.15625 -2.6875,-1.1875 -4.15625,-4.9375 -0.6875,-1.6875 -0.6875,-3.4375 0,-1.875 0.84375,-3.75 1.59375,-3.5625 5.25,-5 Q -15.25,4.5 -13.53125,4.5 q 2.375,0 4.6875,1.28125 0.25,0 0.25,-0.40625 0,-0.8125 -1.21875,-3.6875 Q -11,-1.1875 -11,-3.4375 Z" />
  </g>
</svg>
