<?xml version="1.0" encoding="UTF-8" standalone="no"?>
<svg
   xmlns:dc="http://purl.org/dc/elements/1.1/"
   xmlns:cc="http://creativecommons.org/ns#"
   xmlns:rdf="http://www.w3.org/1999/02/22-rdf-syntax-ns#"
   xmlns:svg="http://www.w3.org/2000/svg"
   xmlns="http://www.w3.org/2000/svg"
   id="svg6"
   version="1.1"
   viewBox="-32.0 -32.0 64 64"
   height="64"
   width="64">
  <metadata
     id="metadata10">
    <rdf:RDF>
      <cc:Work
         rdf:about="">
        <dc:format>image/svg+xml</dc:format>
        <dc:type
           rdf:resource="http://purl.org/dc/dcmitype/StillImage" />
      </cc:Work>
    </rdf:RDF>
  </metadata>
  <defs
     id="defs2" />
  <g
     id="text4"
     style="font-size:64px;fill:#000000"
     aria-label="♎">
    <path
       id="path12"
       style="font-size:64px;fill:#000000"
       d="m -26.65625,23.90625 h 46.6875 v 4.75 h -46.6875 z M -9.25,16.1875 h -17.40625 v -4.75 h 11.0625 q -2.09375,-3.25 -2.09375,-7.34375 0,-5.78125 4,-9.8125 4.03125,-4.0625 9.8125,-4.0625 5.8125,0 9.84375,4.0625 4.0625,4.03125 4.0625,9.8125 0,4.09375 -2.125,7.34375 h 12.125 v 4.75 H 1.5 v -4.75 H 1.46875 Q 2.03125,11.03125 2.5625,10.5 5.25,7.84375 5.25,4.0625 5.25,0.25 2.59375,-2.40625 -0.0625,-5.0625 -3.875,-5.0625 q -3.8125,0 -6.46875,2.65625 Q -13,0.25 -13,4.0625 q 0,3.78125 2.65625,6.4375 0.5,0.53125 1.09375,0.9375 z" />
  </g>
</svg>
