<?xml version="1.0" encoding="UTF-8" standalone="no"?>
<svg
   xmlns:dc="http://purl.org/dc/elements/1.1/"
   xmlns:cc="http://creativecommons.org/ns#"
   xmlns:rdf="http://www.w3.org/1999/02/22-rdf-syntax-ns#"
   xmlns:svg="http://www.w3.org/2000/svg"
   xmlns="http://www.w3.org/2000/svg"
   id="svg6"
   version="1.1"
   viewBox="-32.0 -32.0 64 64"
   height="64"
   width="64">
  <metadata
     id="metadata10">
    <rdf:RDF>
      <cc:Work
         rdf:about="">
        <dc:format>image/svg+xml</dc:format>
        <dc:type
           rdf:resource="http://purl.org/dc/dcmitype/StillImage" />
      </cc:Work>
    </rdf:RDF>
  </metadata>
  <defs
     id="defs2" />
  <g
     id="text4"
     style="font-size:64px;fill:#000000"
     aria-label="â™">
    <path
       id="path12"
       style="font-size:64px;fill:#000000"
       d="M 8,23.53125 Q 8,27 9.59375,28.96875 11.21875,30.90625 14,30.9375 h 2.78125 V 27.25 h 0.125 L 23.25,32.65625 16.90625,38.125 16.78125,38 V 34.3125 H 14 q -6.34375,0 -8.46875,-3.75 -1.375,-2.3125 -1.625,-6 L 3.25,-0.125 q 0,-0.5625 0,-1.09375 Q 3.25,-10 1.8125,-10.03125 0,-10 -2.09375,-6.59375 q -2.0625,3.375 -4.03125,9.625 V 32 h -4.71875 V 3.1875 q 0,-10.03125 -0.5,-11.6875 -0.46875,-1.65625 -1.5625,-1.65625 h -0.03125 -0.03125 q -1.28125,0 -4.09375,3.53125 -2.78125,3.53125 -3.375,10.25 V 32 h -4.65625 V -2.03125 q 0,-5.9375 -4.75,-11.90625 h 4.4375 q 3.6875,2.46875 4.8125,7.96875 0.71875,-2.90625 3.5625,-5.84375 2.875,-2.9375 5.03125,-2.9375 1.96875,0 3.8125,3.09375 1.875,3.09375 1.875,7.09375 1.25,-3.71875 4.34375,-6.9375 3.09375,-3.25 5.4375,-3.25 1.9375,0 3.21875,2.625 1.28125,2.59375 1.28125,9.4375 V 3.625 L 8,23.5 Z" />
  </g>
</svg>
