<?xml version="1.0" encoding="UTF-8" standalone="no"?>
<svg
   xmlns:dc="http://purl.org/dc/elements/1.1/"
   xmlns:cc="http://creativecommons.org/ns#"
   xmlns:rdf="http://www.w3.org/1999/02/22-rdf-syntax-ns#"
   xmlns:svg="http://www.w3.org/2000/svg"
   xmlns="http://www.w3.org/2000/svg"
   id="svg6"
   version="1.1"
   viewBox="-32.0 -32.0 64 64"
   height="64"
   width="64">
  <metadata
     id="metadata10">
    <rdf:RDF>
      <cc:Work
         rdf:about="">
        <dc:format>image/svg+xml</dc:format>
        <dc:type
           rdf:resource="http://purl.org/dc/dcmitype/StillImage" />
      </cc:Work>
    </rdf:RDF>
  </metadata>
  <defs
     id="defs2" />
  <g
     id="text4"
     style="font-size:64px;fill:#000000"
     aria-label="♑">
    <path
       id="path12"
       style="font-size:64px;fill:#000000"
       d="m -5.40625,-14.75 q 3.34375,0 4.59375,13.53125 1.28125,13.53125 2.0625,13.40625 3.40625,-6.90625 9.5,-6.90625 3.78125,0 6.15625,2.96875 2.40625,2.96875 2.40625,6.1875 0,4.53125 -2.25,7.21875 -2.21875,2.65625 -6.65625,2.65625 -4.84375,0 -8.65625,-4.15625 -1.375,5 -3.34375,8.375 Q -3.5625,31.875 -7.875,32 h -5.25 v -3.6875 l 4.8125,-0.03125 q 3.8125,-0.125 7.09375,-11.875 -1.5625,-0.5 -2.5625,-12.8125 -1,-12.34375 -2.8125,-12.34375 -1.125,0 -3.53125,7.3125 -2.40625,7.28125 -2.40625,13.375 0,0.46875 0,0.90625 l -4.9375,0.0625 Q -17.46875,5 -19.6875,-2.75 -21.875,-10.5 -26,-10.6875 v -3.03125 q 4.59375,0 7.09375,3.46875 2.53125,3.46875 3.78125,12.0625 1.4375,-6.28125 2.84375,-9.03125 1.28125,-2.84375 3.1875,-5.1875 1.90625,-2.34375 3.6875,-2.34375 z m 8.9375,30.8125 q 2.90625,4.53125 6.96875,4.53125 5.03125,0 5.3125,-6.15625 -0.21875,-4.90625 -5.1875,-5.5 -4.75,0 -7.09375,7.125 z" />
  </g>
</svg>
