<?xml version="1.0" encoding="UTF-8" standalone="no"?>
<svg
   xmlns:dc="http://purl.org/dc/elements/1.1/"
   xmlns:cc="http://creativecommons.org/ns#"
   xmlns:rdf="http://www.w3.org/1999/02/22-rdf-syntax-ns#"
   xmlns:svg="http://www.w3.org/2000/svg"
   xmlns="http://www.w3.org/2000/svg"
   id="svg6"
   version="1.1"
   viewBox="-32.0 -32.0 64 64"
   height="64"
   width="64">
  <metadata
     id="metadata10">
    <rdf:RDF>
      <cc:Work
         rdf:about="">
        <dc:format>image/svg+xml</dc:format>
        <dc:type
           rdf:resource="http://purl.org/dc/dcmitype/StillImage" />
      </cc:Work>
    </rdf:RDF>
  </metadata>
  <defs
     id="defs2" />
  <g
     id="text4"
     style="font-size:64px;fill:#000000"
     aria-label="♒">
    <path
       id="path12"
       style="font-size:64px;fill:#000000"
       d="m -26.5,19.09375 q 10.15625,-8.46875 13.75,-8.46875 1.40625,0 1.8125,1.25 0.75,2.21875 2.5,2.21875 1.75,0 4.4375,-2.21875 2.6875,-2.21875 4.4375,-2.21875 1.6875,0 2.4375,2.21875 0.8125,2.21875 2.59375,2.21875 1.78125,0 4.46875,-2.21875 1.34375,-1.125 2.625,-1.125 3.875,0 7.28125,9.875 l -2.9375,1.59375 q -1.96875,-5.78125 -4.9375,-5.78125 -1.59375,0 -3.46875,1.65625 -2.6875,2.375 -4.4375,2.375 -1.75,0 -2.53125,-2.34375 -0.875,-2.4375 -2.71875,-2.4375 -1.71875,0 -4.3125,2.09375 Q -8.21875,20 -9.9375,20 q -1.75,0 -2.53125,-2.25 -0.75,-2.1875 -2.4375,-2.1875 -1.71875,0 -5.75,3.34375 -4.03125,3.3125 -4.1875,3.3125 L -26.5,19.15625 Z m 0,-14.71875 q 10.125,-8.40625 13.75,-8.40625 1.375,0 1.8125,1.21875 0.75,2.1875 2.5,2.1875 1.71875,0 4.40625,-2.1875 2.71875,-2.25 4.4375,-2.25 1.71875,0 2.4375,2.25 0.84375,2.1875 2.59375,2.1875 1.78125,0 4.46875,-2.1875 1.34375,-1.09375 2.625,-1.09375 3.90625,0 7.3125,9.84375 L 16.90625,7.5 Q 14.9375,1.71875 11.96875,1.71875 10.375,1.71875 8.5,3.40625 5.78125,5.8125 4.0625,5.8125 2.3125,5.8125 1.5,3.4375 0.65625,1 -1.1875,1 q -1.71875,0 -4.34375,2.125 -2.6875,2.21875 -4.4375,2.21875 -1.71875,0 -2.5,-2.25 -0.75,-2.25 -2.46875,-2.25 -1.71875,0 -5.75,3.34375 -4,3.3125 -4.15625,3.3125 L -26.5,4.46875 Z" />
  </g>
</svg>
