<?xml version="1.0" encoding="UTF-8" standalone="no"?>
<svg
   xmlns:dc="http://purl.org/dc/elements/1.1/"
   xmlns:cc="http://creativecommons.org/ns#"
   xmlns:rdf="http://www.w3.org/1999/02/22-rdf-syntax-ns#"
   xmlns:svg="http://www.w3.org/2000/svg"
   xmlns="http://www.w3.org/2000/svg"
   xmlns:sodipodi="http://sodipodi.sourceforge.net/DTD/sodipodi-0.dtd"
   xmlns:inkscape="http://www.inkscape.org/namespaces/inkscape"
   inkscape:version="1.0 (4035a4fb49, 2020-05-01)"
   sodipodi:docname="⛎.svg"
   width="64"
   height="64"
   viewBox="-32.0 -32.0 64 64"
   version="1.1"
   id="svg6">
  <sodipodi:namedview
     inkscape:current-layer="text8"
     inkscape:window-maximized="1"
     inkscape:window-y="-9"
     inkscape:window-x="-9"
     inkscape:cy="36.191137"
     inkscape:cx="32"
     inkscape:zoom="12.96875"
     showgrid="false"
     id="namedview6"
     inkscape:window-height="1271"
     inkscape:window-width="2400"
     inkscape:pageshadow="2"
     inkscape:pageopacity="0"
     guidetolerance="10"
     gridtolerance="10"
     objecttolerance="10"
     borderopacity="1"
     bordercolor="#666666"
     pagecolor="#ffffff" />
  <metadata
     id="metadata10">
    <rdf:RDF>
      <cc:Work
         rdf:about="">
        <dc:format>image/svg+xml</dc:format>
        <dc:type
           rdf:resource="http://purl.org/dc/dcmitype/StillImage" />
      </cc:Work>
    </rdf:RDF>
  </metadata>
  <defs
     id="defs2">
    <rect
       id="rect10"
       height="56.366265"
       width="55.749398"
       y="-25.6"
       x="-26.293976" />
  </defs>
  <g
     aria-label="⛎"
     style="font-size:64px;fill:#000000"
     id="text4" />
  <g
     style="font-style:normal;font-weight:normal;font-size:40px;line-height:1.25;font-family:sans-serif;white-space:pre;shape-inside:url(#rect10);fill:#000000;fill-opacity:1;stroke:none"
     id="text8"
     aria-label="⛎">
    <path
       sodipodi:nodetypes="cscscscscccsccccsccccccccsccccsccscscscccccscsscss"
       id="path14"
       d="m 14.818359,-3.5985842 c -0.703125,0.7552083 -1.497395,1.3932292 -2.382812,1.9140625 -0.885417,0.5208333 -1.835938,0.89192707 -2.8515626,1.11328124 V 1.0693845 c 0,1.1588542 -0.2213542,2.2526042 -0.6640625,3.28125 C 8.4772136,5.3662595 7.8717448,6.2581866 7.1035156,7.0264158 6.3483073,7.7816241 5.4563802,8.3805825 4.4277344,8.8232908 3.4121094,9.2659991 2.3248698,9.4873533 1.1660156,9.4873533 c -1.15885415,0 -2.2526041,-0.2213542 -3.28125,-0.6640625 C -3.1308594,8.3805825 -4.0227865,7.7816241 -4.7910156,7.0264158 -5.5462239,6.2581866 -6.1451823,5.3662595 -6.5878906,4.3506345 -7.0305989,3.3219887 -7.2519531,2.2282387 -7.2519531,1.0693845 v -6.6992187 c -0.625,0.1822917 -1.2044271,0.4492187 -1.7382813,0.8007812 -0.5208333,0.3515625 -1.0026042,0.7617188 -1.4453126,1.2304688 l -2.050781,-1.9140625 c 0.703125,-0.7552083 1.497395,-1.3932292 2.382812,-1.9140625 0.8854169,-0.5208333 1.8359379,-0.8919271 2.8515629,-1.1132813 v -7.2460935 h 2.7929687 v 7.050781 c 1.0026042,0.065104 1.8619792,0.2343748 2.578125,0.5078125 0.7291667,0.2734375 1.37369794,0.6054688 1.93359377,0.9960938 0.55989584,0.3776041 1.07421873,0.7877604 1.54296873,1.2304687 0.46875,0.4296875 0.9505208,0.8398438 1.4453125,1.2304688 0.5078125,0.390625 1.0546875,0.7291667 1.640625,1.015625 0.5859375,0.2864583 1.2825521,0.4752604 2.0898438,0.5664062 v -12.597656 h 2.8125 v 12.3046873 c 0.6249996,-0.1822917 1.2044266,-0.4492188 1.7382816,-0.8007813 0.533854,-0.3515625 1.015625,-0.7617187 1.445312,-1.2304687 z M 1.1660156,6.6748533 c 0.7682292,0 1.4908855,-0.1432292 2.1679688,-0.4296875 C 4.0240885,5.9456866 4.6230469,5.5420408 5.1308594,5.0342283 5.6386719,4.5264158 6.0358073,3.9339678 6.3222656,3.2568845 6.6217448,2.5667804 6.7714844,1.8376137 6.7714844,1.0693845 V -0.35639671 C 5.7688802,-0.43452171 4.9029948,-0.61030296 4.1738281,-0.88374046 3.4576823,-1.1701988 2.8131511,-1.5022301 2.2402344,-1.8798342 1.6803385,-2.2704592 1.1660156,-2.6806155 0.69726562,-3.110303 0.22851562,-3.5530113 -0.25976563,-3.9631676 -0.76757812,-4.3407717 -1.2623698,-4.7313967 -1.8027344,-5.0699384 -2.3886719,-5.3563967 -2.9746094,-5.642855 -3.6647135,-5.8316571 -4.4589844,-5.922803 v 6.9921875 c 0,0.7682292 0.1497396,1.4908855 0.4492188,2.1679688 0.2994791,0.6770833 0.703125,1.2695312 1.2109375,1.7773437 0.5208333,0.5078125 1.1197917,0.9114584 1.796875,1.2109375 0.67708332,0.2994792 1.39973955,0.4492188 2.1679687,0.4492188 z" />
  </g>
</svg>
